<svg id="Capa_1" enable-background="new 0 0 512 512" height="512" viewBox="0 0 512 512" width="512" xmlns="http://www.w3.org/2000/svg"><g><g><path d="m0 256c0 141.385 114.615 256 256 256l33.642-256-33.642-256c-141.385 0-256 114.615-256 256z" fill="#fff083"/><path d="m256 0v512c141.385 0 256-114.615 256-256s-114.615-256-256-256z" fill="#ffda2d"/></g><g><g><path d="m338.52 249.064c-37.43 0-67.882-30.452-67.882-67.882s30.451-67.881 67.882-67.881 67.882 30.451 67.882 67.881-30.451 67.882-67.882 67.882z" fill="#daf2fe"/></g><g><path d="m226.161 225.622h-30c0-16.409-13.35-29.758-29.758-29.758-16.409 0-29.759 13.35-29.759 29.758h-30c0-32.951 26.808-59.758 59.759-59.758 32.951-.001 59.758 26.807 59.758 59.758z" fill="#ffda2d"/></g><g><path d="m323.519 166.182h30.002v30h-30.002z" fill="#5d519d"/></g></g><g><path d="m194.111 289.247h-87.466v12.406c0 59.532 48.26 107.792 107.792 107.792h41.563l27.697-90.585z" fill="#ffda2d"/><path d="m317.889 289.247-61.889 29.613v90.585h43.604c59.532 0 107.792-48.26 107.792-107.792v-12.406z" fill="#ffb64c"/></g><g><path d="m241 289.247h-46.889v103.449c0 34.18 27.709 61.889 61.889 61.889l21.6-155.788z" fill="#f2315c"/><path d="m271 289.247-15 9.55v155.788c34.18 0 61.889-27.709 61.889-61.889v-103.449z" fill="#e20f5a"/></g><g><path d="m241 289.247v78.035h15l11.183-41.945-11.183-36.09z" fill="#e20f5a"/><path d="m256 289.247h15v78.035h-15z" fill="#c8134b"/></g></g></svg>