<?xml version="1.0" encoding="iso-8859-1"?>
<!-- Generator: Adobe Illustrator 19.0.0, SVG Export Plug-In . SVG Version: 6.00 Build 0)  -->
<svg version="1.1" id="Capa_1" xmlns="http://www.w3.org/2000/svg" xmlns:xlink="http://www.w3.org/1999/xlink" x="0px" y="0px"
	 viewBox="0 0 512 512" style="enable-background:new 0 0 512 512;" xml:space="preserve">
<polygon style="fill:#FF3636;" points="361.021,351.069 361.021,512 256,453.087 150.979,512 150.979,351.069 "/>
<polygon style="fill:#CC0000;" points="361.021,351.069 361.021,512 256,453.087 256,351.069 "/>
<path style="fill:#FF9F00;" d="M256,0C148.578,0,60.962,87.616,60.962,195.038c0,107.42,87.616,195.038,195.038,195.038
	s195.038-87.618,195.038-195.038C451.038,87.616,363.421,0,256,0z"/>
<path style="fill:#FF7816;" d="M451.038,195.038c0,107.42-87.616,195.038-195.038,195.038V0
	C363.421,0,451.038,87.616,451.038,195.038z"/>
<path style="fill:#FDBF00;" d="M256,60.012c-74.414,0-135.026,60.611-135.026,135.026c0,74.414,60.613,135.026,135.026,135.026
	s135.026-60.613,135.026-135.026C391.026,120.623,330.414,60.012,256,60.012z"/>
<g>
	<path style="fill:#FF9F00;" d="M391.026,195.038c0,74.414-60.613,135.026-135.026,135.026V60.012
		C330.414,60.012,391.026,120.623,391.026,195.038z"/>
	<path style="fill:#FF9F00;" d="M348.719,167.133l-64.213-9.302l-28.506-56.111l-28.506,56.111l-64.213,9.302l46.51,44.408
		l-10.803,62.112L256,244.248l57.012,29.405l-10.803-62.112L348.719,167.133z"/>
</g>
<polygon style="fill:#FF7816;" points="313.012,273.653 256,244.248 256,101.72 284.506,157.831 348.719,167.133 302.208,211.541 
	"/>
<g>
</g>
<g>
</g>
<g>
</g>
<g>
</g>
<g>
</g>
<g>
</g>
<g>
</g>
<g>
</g>
<g>
</g>
<g>
</g>
<g>
</g>
<g>
</g>
<g>
</g>
<g>
</g>
<g>
</g>
</svg>
