<svg id="Capa_1" enable-background="new 0 0 512 512" height="512" viewBox="0 0 512 512" width="512" xmlns="http://www.w3.org/2000/svg"><g><g><path d="m268.336 461.47h-24.673c-4.143 0-7.5 3.357-7.5 7.5s3.357 7.5 7.5 7.5h24.673c4.143 0 7.5-3.357 7.5-7.5s-3.357-7.5-7.5-7.5z"/><path d="m402.036 0h-292.072c-21.152 0-38.361 17.209-38.361 38.361v435.277c0 21.152 17.209 38.361 38.361 38.361h292.072c21.152 0 38.361-17.209 38.361-38.361v-435.277c0-21.152-17.209-38.361-38.361-38.361zm23.361 473.639c0 12.882-10.479 23.361-23.361 23.361h-292.072c-12.882 0-23.361-10.479-23.361-23.361v-435.278c0-12.882 10.479-23.361 23.361-23.361h292.072c12.882 0 23.361 10.479 23.361 23.361z"/><path d="m391.888 112.422c-4.143 0-7.5 3.357-7.5 7.5v215.072c-13.422-21.778-35.001-38.209-61.236-44.852l-13.395-8.214h-.001c-4.562-2.799-10.296-3.051-15.072-.778-.573-1.141-.883-2.414-.883-3.732v-5.116c6.889-1.305 12.559-6.1 15.097-12.469h15.673c12.971 0 23.522-10.552 23.522-23.522v-49.05c0-8.29-5.24-15.379-12.582-18.129v-25.272c0-13.627-10.855-24.766-24.372-25.225-.775-13.225-11.779-23.744-25.195-23.744h-61.13c-26.647 0-48.326 21.679-48.326 48.325v25.971c-7.266 2.789-12.437 9.839-12.437 18.074v20.249c0 10.669 8.681 19.35 19.351 19.35h7.651c2.05 14.843 9.168 28.094 20.476 37.865 2.167 1.872 4.391 3.591 6.67 5.158v7.535c0 1.318-.311 2.591-.885 3.731-4.774-2.272-10.506-2.02-15.07.779h-.001l-13.395 8.214c-26.235 6.642-47.814 23.073-61.236 44.851v-36.197c0-4.143-3.357-7.5-7.5-7.5s-7.5 3.357-7.5 7.5v116.403c0 12.04 9.796 21.835 21.836 21.835h243.104c12.04 0 21.836-9.795 21.836-21.835v-295.277c0-4.143-3.358-7.5-7.5-7.5zm-89.972 182.293 6.249 3.833-26.371 26.411c-.407.374-1.024.393-1.455.036l-11.646-9.729c7.26-4.606 26.208-16.626 32.386-20.545.255-.16.577-.165.837-.006zm31.178-107.454v20.249c0 2.398-1.952 4.35-4.351 4.35h-7.056v-16.387c.831-.44 7.321-1.534 11.395-8.528.008.103.012.209.012.316zm-43.085 70.396c-4.682 0-13.899 0-18.563 0-2.936 0-5.323-2.389-5.323-5.324s2.388-5.323 5.323-5.323h18.563c7.146 0 7.003 10.647 0 10.647zm34.562-12.824h-8.747c2.68-5.624 4.468-11.665 5.311-17.974h7.608c1.495 0 2.952-.171 4.351-.493v9.944c0 4.7-3.823 8.523-8.523 8.523zm-133.083-101.617c0-18.376 14.95-33.325 33.326-33.325h61.13c5.646 0 10.239 4.593 10.239 10.238 0 7.439 6.052 13.491 13.491 13.491h.598c5.646 0 10.239 4.594 10.239 10.239v34.093c0 1.224-.776 2.315-1.932 2.718-.669.233-9.75 3.396-9.236 3.217l.019-19.098c.072-17.406-16.193-31.356-37.528-24.504-10.064 3.235-21.723 3.194-31.668 0-21.647-6.954-37.598 7.557-37.528 24.481l.022 19.12c-.746-.26-9.746-3.393-9.24-3.217-1.155-.402-1.932-1.494-1.932-2.718zm-12.436 64.294v-20.249c0-.03 0-.059.001-.089 4.13 6.854 10.467 7.861 11.405 8.35v16.338h-7.056c-2.398-.001-4.35-1.952-4.35-4.35zm26.406-8.088c6.916-.679 12.215-6.495 12.204-13.472l-.024-21.224c-.033-7.984 7.057-13.655 17.94-10.16 12.815 4.117 28.139 4.084 40.844 0 10.625-3.412 17.974 2.045 17.94 10.185l-.021 21.198c-.009 6.96 5.296 12.869 12.346 13.486-.608 14.24 1.888 24.286-3.668 37.298-3.528-2.947-8.066-4.723-13.011-4.723h-18.563c-11.206 0-20.323 9.117-20.323 20.323 0 5.653 2.32 10.775 6.058 14.462-.302.01-.606.018-.91.023-12.534-.107-24.395-4.336-34.935-13.443-21.63-18.692-14.588-44.198-15.877-53.953zm50.791 82.396h.053c.039 0 .077 0 .116-.001 7.802-.121 15.289-1.502 22.385-4.119.048 4.077 1.151 7.989 3.13 11.405l-25.933 16.452-25.935-16.453c1.98-3.415 3.083-7.327 3.132-11.405 7.268 2.685 14.968 4.065 23.052 4.121zm-46.165 12.897c.259-.158.579-.158.838.007 6.35 4.028 25.138 15.947 32.386 20.545l-11.647 9.729c-.428.356-1.047.338-1.454-.036l-26.371-26.411zm167.468 127.319h-29.308v-19.367c0-4.143-3.357-7.5-7.5-7.5s-7.5 3.357-7.5 7.5v19.367h-154.488v-19.367c0-4.143-3.357-7.5-7.5-7.5s-7.5 3.357-7.5 7.5v19.367h-29.308c-3.77 0-6.836-3.066-6.836-6.835v-27.048c0-38.577 25.272-71.995 61.955-82.662l30.078 30.122c.025.025.05.05.075.074 5.943 5.787 15.213 6.123 21.556.821l14.724-12.298 14.723 12.299c6.354 5.309 15.622 4.957 21.557-.821.025-.024.05-.049.075-.074l30.078-30.122c36.683 10.667 61.954 44.085 61.954 82.662 0 .026.001.052.001.077v26.97c0 3.769-3.067 6.835-6.836 6.835z"/><path d="m377.552 41.01h-243.104c-12.04 0-21.836 9.796-21.836 21.836v200.887c0 4.143 3.357 7.5 7.5 7.5s7.5-3.357 7.5-7.5v-200.887c0-3.77 3.066-6.836 6.836-6.836h243.104c3.77 0 6.836 3.066 6.836 6.836v22.014c0 4.143 3.357 7.5 7.5 7.5s7.5-3.357 7.5-7.5v-22.014c0-12.04-9.796-21.836-21.836-21.836z"/><path d="m346.621 340.655h-34.971c-7.924 0-14.37 6.446-14.37 14.37v12.336c0 7.924 6.446 14.37 14.37 14.37h34.971c7.924 0 14.371-6.446 14.371-14.37v-12.336c0-7.923-6.447-14.37-14.371-14.37zm-.629 26.076h-33.712v-11.076h33.712z"/></g></g></svg>