<svg height="512" viewBox="0 0 60 60" width="512" xmlns="http://www.w3.org/2000/svg"><g id="024---Utility-Rate" fill="none"><path id="Shape" d="m59 3v13h-10v-13c0-1.1045695.8954305-2 2-2h6c1.1045695 0 2 .8954305 2 2z" fill="#f0c419"/><path id="Rectangle-path" d="m29 50h10v9h-10z" fill="#ff5364"/><path id="Rectangle-path" d="m39 25h10v21h-10z" fill="#67b9cc"/><path id="Rectangle-path" d="m49 14h10v24h-10z" fill="#f29c1f"/><path id="Shape" d="m39 36v16h-10v-16c0-1.1045695.8954305-2 2-2h6c1.1045695 0 2 .8954305 2 2z" fill="#fb7b76"/><path id="Rectangle-path" d="m39 43h10v16h-10z" fill="#2fa8cc"/><path id="Shape" d="m49 19v9h-10v-9c0-1.1045695.8954305-2 2-2h6c1.1045695 0 2 .8954305 2 2z" fill="#2fa8cc"/><path id="Rectangle-path" d="m49 36h10v23h-10z" fill="#f0c419"/><path id="Shape" d="m43.71 5.24-5-4.95c-.2021182-.16586698-.4495552-.26693279-.71-.29-.3273984.00831095-.6299783.17641088-.81.45l-4.8 4.79c-.2536586.25365857-.3527235.62337399-.259878.96987804.0928454.34650405.3634959.61715452.71.71.346504.09284548.7162194-.00621947.969878-.25987804l3.07-3.08c-1.61 19.14-21.02 19.42-21.88 19.42-.5522847 0-1 .4477153-1 1s.4477153 1 1 1c.23 0 22.44-.26 23.92-21.72l3.37 3.38c.3921222.39212214 1.0278778.39212212 1.42-.00000004.3921221-.39212215.3921221-1.02787778 0-1.41999996z" fill="#a5a5a4"/><circle id="Oval" cx="15" cy="45" fill="#3f5c6c" r="14"/><path id="Shape" d="m22 47c0 3.8659932-3.1340068 7-7 7s-7-3.1340068-7-7c0-3.87 7-12 7-12s7 8.13 7 12z" fill="#2fa8cc"/><path id="Shape" d="m14 51c-.1568771.0018772-.3116796-.0359634-.45-.11-1.4986211-.7314062-2.4770674-2.2240164-2.55-3.89 0-.5522847.4477153-1 1-1s1 .4477153 1 1c.0776244.909751.6285341 1.7114197 1.45 2.11.4101627.2101126.6236218.6733224.51688 1.1216381-.1067419.4483157-.5060402.7656308-.96688.7683619z" fill="#fff"/><path id="Shape" d="m59 60h-58c-.55228475 0-1-.4477153-1-1s.44771525-1 1-1h58c.5522847 0 1 .4477153 1 1s-.4477153 1-1 1z" fill="#2c3e50"/></g></svg>